<?xml version="1.0" encoding="utf-8"?><svg xmlns="http://www.w3.org/2000/svg" xmlns:xlink="http://www.w3.org/1999/xlink"><symbol fill="none" viewBox="0 0 15 11" id="Path_2" xmlns="http://www.w3.org/2000/svg"><path d="M1 5.5l3.953 3.953L13.405 1" stroke="#161932" stroke-width="2"/></symbol><symbol fill="none" viewBox="0 0 14 7" id="arrow-short" xmlns="http://www.w3.org/2000/svg"><path d="M1 1l6 4 6-4" stroke="#1E213F" stroke-opacity=".25" stroke-width="2"/></symbol><symbol fill="none" viewBox="0 0 28 28" id="menu" xmlns="http://www.w3.org/2000/svg"><path fill-rule="evenodd" clip-rule="evenodd" d="M24.038 15.365l2.927 2.317c.264.217.34.595.167.896l-2.775 4.851a.691.691 0 01-.847.301l-3.455-1.407a10.25 10.25 0 01-2.344 1.379l-.52 3.71a.703.703 0 01-.688.588h-5.55a.702.702 0 01-.686-.588l-.52-3.71A10.504 10.504 0 017.4 22.323L3.946 23.73a.683.683 0 01-.846-.301L.325 18.578a.702.702 0 01.167-.896l2.927-2.317A11.093 11.093 0 013.322 14c0-.462.042-.917.097-1.365L.492 10.318a.705.705 0 01-.167-.896L3.1 4.571a.691.691 0 01.847-.301L7.4 5.677a10.247 10.247 0 012.345-1.379l.52-3.71A.702.702 0 0110.955 0h5.55c.346 0 .63.259.693.588l.52 3.71c.847.357 1.63.826 2.346 1.379l3.454-1.407a.683.683 0 01.847.301l2.775 4.851a.702.702 0 01-.167.896l-2.934 2.317c.055.448.097.903.097 1.365 0 .462-.042.917-.097 1.365zM8.872 14c0 2.709 2.172 4.9 4.857 4.9 2.684 0 4.856-2.19 4.856-4.9 0-2.709-2.172-4.9-4.857-4.9-2.684 0-4.856 2.191-4.856 4.9z" fill="#D7E0FF"/></symbol></svg>